<?xml version="1.0" encoding="UTF-8" standalone="no"?>
<svg
   width="200"
   height="200"
   viewBox="0 0 200 200"
   version="1.1"
   id="svg1"
   xmlns="http://www.w3.org/2000/svg">
  <path
     d="M 100,50 C 85,65 70,80 55,95 c -5,5 -5,15 0,20 15,15 30,30 45,45 15,-15 30,-30 45,-45 5,-5 5,-15 0,-20 C 130,80 115,65 100,50 Z"
     fill="white"
     id="path1" />
  <path
     d="m 100,65 c 10,10 20,20 30,30 l -30,30 -30,-30 z"
     fill="white"
     id="path2" />
  <path
     d="M 95,35 V 20 h 10 v 15 z"
     fill="white"
     id="path3" />
  <path
     d="m 85,140 v -10 h 30 v 10 z"
     fill="white"
     id="path4" />
</svg>
